<svg xmlns="http://www.w3.org/2000/svg" width="24" height="24" fill="none" viewBox="0 0 24 24">
  <path fill="#229ED9" d="M12 0C5.373 0 0 5.373 0 12c0 6.627 5.373 12 12 12s12-5.373 12-12C24 5.373 18.627 0 12 0Z"></path>
  <path fill="#fff" d="M17.88 7.194c.2-.85-.677-1.48-1.396-1.073l-11.5 6.39c-.7.39-.65 1.46.09 1.77l2.86 1.23c.35.15.76.07 1.02-.2l6.01-6.33c.14-.15.36.03.26.2l-4.29 7.27c-.24.41-.07.94.37 1.13l.02.01c.44.18.95.02 1.19-.38l5.27-8.91c.03-.05.06-.11.08-.16l.01-.02Z"></path>
</svg>
